<?xml version="1.0" standalone="no"?>
<!DOCTYPE svg PUBLIC "-//W3C//DTD SVG 20010904//EN"
 "http://www.w3.org/TR/2001/REC-SVG-20010904/DTD/svg10.dtd">
<svg version="1.0" xmlns="http://www.w3.org/2000/svg"
 width="664.000000pt" height="664.000000pt" viewBox="0 0 664.000000 664.000000"
 preserveAspectRatio="xMidYMid meet">
<metadata>
Created by potrace 1.14, written by Peter Selinger 2001-2017
</metadata>
<g transform="translate(0.000000,664.000000) scale(0.100000,-0.100000)"
fill="#000000" stroke="none">
<path d="M3185 6503 c-33 -8 -64 -16 -70 -17 -5 -1 -27 -10 -49 -19 -21 -9
-40 -17 -43 -17 -2 0 -37 -19 -76 -43 -40 -24 -79 -47 -87 -51 -8 -4 -24 -12
-35 -19 -27 -16 -171 -99 -215 -124 -19 -11 -91 -53 -160 -93 -69 -40 -141
-81 -160 -92 -367 -210 -476 -274 -478 -280 -2 -5 -8 -8 -13 -8 -9 0 -481
-269 -504 -287 -5 -4 -23 -15 -40 -23 -16 -8 -46 -24 -65 -36 -19 -12 -78 -46
-130 -76 -377 -218 -367 -210 -508 -393 -5 -5 -9 -14 -9 -18 -1 -4 -11 -27
-22 -50 -24 -50 -53 -157 -57 -212 -2 -33 -6 -2589 -4 -2605 1 -3 3 -27 5 -55
5 -58 40 -184 55 -199 5 -5 10 -18 10 -28 0 -10 5 -18 10 -18 6 0 10 -5 10
-11 0 -17 57 -94 109 -148 44 -45 190 -148 244 -172 12 -5 36 -18 52 -29 17
-10 41 -25 55 -33 59 -33 128 -72 265 -152 81 -47 151 -85 156 -85 5 0 9 -4 9
-10 0 -5 5 -10 11 -10 6 0 49 -23 97 -51 48 -29 107 -63 132 -77 25 -14 62
-36 82 -49 21 -12 40 -23 43 -23 2 0 34 -18 70 -40 36 -22 67 -40 69 -40 2 0
45 -25 95 -55 51 -30 93 -55 95 -55 2 0 43 -24 92 -53 49 -29 114 -67 144 -84
30 -17 96 -54 145 -83 50 -29 110 -64 135 -78 25 -14 78 -45 118 -69 41 -24
75 -43 78 -43 2 0 32 -17 66 -38 57 -34 128 -70 183 -93 76 -32 212 -47 310
-35 117 14 194 45 363 145 29 17 57 31 62 31 6 0 10 4 10 9 0 5 11 12 24 15
14 3 31 12 38 19 7 7 33 24 59 37 43 24 318 181 349 201 33 20 343 199 345
199 2 0 32 17 66 39 35 21 96 55 134 76 39 21 77 44 86 51 8 8 18 14 21 14 3
0 43 22 89 48 46 27 95 55 109 63 14 8 27 16 30 19 3 3 23 14 45 26 22 11 83
46 135 76 52 30 111 63 130 74 19 10 37 22 40 25 3 3 10 8 15 10 27 11 220
124 223 131 2 4 9 8 15 8 20 0 142 85 192 135 84 83 158 209 181 308 1 4 2 8
3 10 13 16 15 256 16 1432 l0 1370 -23 75 c-40 125 -110 235 -207 322 -35 31
-197 138 -209 138 -3 0 -113 63 -245 140 -133 77 -245 140 -251 140 -5 0 -10
5 -10 10 0 6 -4 10 -9 10 -5 0 -102 54 -216 120 -113 66 -210 120 -215 120 -6
0 -10 3 -10 8 0 4 -15 13 -32 21 -18 8 -35 17 -38 20 -3 3 -14 11 -25 17 -87
46 -111 60 -115 64 -4 5 -232 136 -285 164 -11 6 -27 16 -35 22 -8 6 -35 22
-60 35 -25 13 -52 29 -60 35 -8 6 -40 25 -70 41 -93 51 -153 85 -192 110 -21
12 -42 23 -48 23 -5 0 -10 5 -10 10 0 6 -4 10 -8 10 -5 0 -55 26 -113 58 -152
84 -219 104 -359 107 -56 1 -120 -4 -155 -12z"/>
</g>
</svg>
